<?xml version="1.0" encoding="UTF-8"?>
<svg xmlns="http://www.w3.org/2000/svg" xmlns:xlink="http://www.w3.org/1999/xlink" width="120px" height="120px" viewBox="0 0 120 120" version="1.1">
<g id="surface1">
<path style=" stroke:none;fill-rule:nonzero;fill:rgb(0%,0%,0%);fill-opacity:1;" d="M 48.371094 59.863281 L 48.367188 59.867188 C 48.367188 59.867188 48.367188 59.871094 48.367188 59.871094 C 48.1875 60.054688 48.050781 60.273438 47.941406 60.511719 C 47.90625 60.574219 47.886719 60.625 47.863281 60.6875 C 47.839844 60.746094 47.808594 60.804688 47.789062 60.867188 L 42.503906 80.417969 C 42.296875 81.191406 42.515625 82.019531 43.082031 82.585938 C 43.511719 83.015625 44.082031 83.246094 44.667969 83.246094 C 44.863281 83.246094 45.0625 83.222656 45.25 83.167969 L 64.046875 78.085938 C 64.171875 78.105469 64.292969 78.15625 64.417969 78.15625 C 64.996094 78.15625 65.566406 77.941406 66.003906 77.5 L 96.445312 47.058594 C 98.066406 45.429688 98.964844 43.273438 98.964844 40.976562 C 98.964844 38.683594 98.066406 36.523438 96.445312 34.898438 L 90.96875 29.421875 C 87.722656 26.175781 82.054688 26.179688 78.816406 29.421875 Z M 81.984375 32.59375 C 83.535156 31.035156 86.246094 31.042969 87.800781 32.59375 L 93.277344 38.066406 C 94.058594 38.84375 94.484375 39.875 94.484375 40.976562 C 94.484375 42.078125 94.058594 43.109375 93.277344 43.886719 L 91.628906 45.535156 L 80.339844 34.242188 Z M 77.164062 37.414062 L 88.460938 48.703125 L 64.421875 72.746094 L 53.125 61.453125 Z M 51.804688 66.472656 L 59.894531 74.5625 L 47.851562 77.824219 L 51.105469 65.773438 Z M 51.804688 66.472656 "/>
<path style=" stroke:none;fill-rule:nonzero;fill:rgb(0%,0%,0%);fill-opacity:1;" d="M 76.871094 45.828125 L 80.039062 49 L 65.972656 63.070312 L 62.804688 59.902344 Z M 76.871094 45.828125 "/>
<path style=" stroke:none;fill-rule:nonzero;fill:rgb(0%,0%,0%);fill-opacity:1;" d="M 27.640625 97.804688 L 87.960938 97.804688 C 92.699219 97.804688 96.554688 93.945312 96.554688 89.203125 L 96.554688 58.851562 L 92.070312 58.851562 L 92.070312 89.203125 C 92.070312 91.472656 90.226562 93.320312 87.960938 93.320312 L 29.882812 93.320312 L 29.882812 33.839844 L 68.144531 33.839844 L 68.144531 29.355469 L 27.640625 29.355469 C 26.402344 29.355469 25.398438 30.359375 25.398438 31.597656 L 25.398438 95.558594 C 25.398438 96.792969 26.398438 97.804688 27.640625 97.804688 Z M 27.640625 97.804688 "/>
</g>
</svg>
