<?xml version="1.0" encoding="UTF-8"?>
<svg xmlns="http://www.w3.org/2000/svg" xmlns:xlink="http://www.w3.org/1999/xlink" width="105px" height="105px" viewBox="0 0 105 105" version="1.1">
<g id="surface1">
<path style="fill:none;stroke-width:2;stroke-linecap:round;stroke-linejoin:round;stroke:rgb(0%,0%,0%);stroke-opacity:1;stroke-miterlimit:10;" d="M 25 10 L 7 10 L 7 27 C 7 28.10119 7.89881 29 9 29 L 23 29 C 24.10119 29 25 28.10119 25 27 Z M 25 10 " transform="matrix(3.28125,0,0,3.28125,0,0)"/>
<path style="fill:none;stroke-width:2;stroke-linecap:round;stroke-linejoin:round;stroke:rgb(0%,0%,0%);stroke-opacity:1;stroke-miterlimit:10;" d="M 20 7 L 12 7 L 12 5 C 12 3.89881 12.89881 3 14 3 L 18 3 C 19.10119 3 20 3.89881 20 5 Z M 20 7 " transform="matrix(3.28125,0,0,3.28125,0,0)"/>
<path style="fill:none;stroke-width:2;stroke-linecap:round;stroke-linejoin:round;stroke:rgb(0%,0%,0%);stroke-opacity:1;stroke-miterlimit:10;" d="M 28 10 L 4 10 L 4 8 C 4 7.445238 4.445238 7 5 7 L 27 7 C 27.554762 7 28 7.445238 28 8 Z M 28 10 " transform="matrix(3.28125,0,0,3.28125,0,0)"/>
<path style="fill:none;stroke-width:2;stroke-linecap:round;stroke-linejoin:round;stroke:rgb(0%,0%,0%);stroke-opacity:1;stroke-miterlimit:10;" d="M 16 15 L 16 24 " transform="matrix(3.28125,0,0,3.28125,0,0)"/>
<path style="fill:none;stroke-width:2;stroke-linecap:round;stroke-linejoin:round;stroke:rgb(0%,0%,0%);stroke-opacity:1;stroke-miterlimit:10;" d="M 12 15 L 12 24 " transform="matrix(3.28125,0,0,3.28125,0,0)"/>
<path style="fill:none;stroke-width:2;stroke-linecap:round;stroke-linejoin:round;stroke:rgb(0%,0%,0%);stroke-opacity:1;stroke-miterlimit:10;" d="M 20 15 L 20 24 " transform="matrix(3.28125,0,0,3.28125,0,0)"/>
</g>
</svg>
